<?xml version="1.0" standalone="no"?>
<!DOCTYPE svg PUBLIC "-//W3C//DTD SVG 20010904//EN"
 "http://www.w3.org/TR/2001/REC-SVG-20010904/DTD/svg10.dtd">
<svg version="1.0" xmlns="http://www.w3.org/2000/svg"
 width="600.000000pt" height="600.000000pt" viewBox="0 0 600.000000 600.000000"
 preserveAspectRatio="xMidYMid meet">
<metadata>
Created by potrace 1.14, written by Peter Selinger 2001-2017
</metadata>
<g transform="translate(0.000000,600.000000) scale(0.100000,-0.100000)"
fill="#000000" stroke="none">
<path d="M2735 5990 c-1334 -123 -2423 -1106 -2679 -2418 -34 -174 -45 -275
-53 -477 -25 -712 208 -1413 660 -1978 105 -132 323 -350 457 -457 314 -251
723 -459 1100 -559 291 -77 562 -107 874 -98 229 7 373 25 565 68 542 124
1021 382 1420 764 862 827 1149 2084 735 3212 -101 273 -285 596 -476 835
-105 132 -324 351 -455 455 -427 342 -947 564 -1486 638 -136 19 -525 27 -662
15z m690 -1068 c162 -29 281 -65 393 -117 295 -140 471 -346 549 -644 33 -126
43 -378 20 -486 -41 -189 -147 -359 -302 -484 l-73 -59 76 -48 c184 -116 345
-331 411 -549 78 -253 66 -567 -30 -812 -135 -344 -445 -572 -889 -655 -99
-18 -165 -22 -478 -27 l-362 -6 0 1048 0 1047 253 -1 c315 -1 411 15 567 97
170 88 289 235 342 419 30 106 32 334 4 435 -36 129 -100 234 -198 326 -79 72
-153 117 -250 151 -140 49 -188 52 -706 53 -537 0 -530 1 -558 -65 -12 -29
-14 -293 -14 -1772 l0 -1738 -181 2 c-148 2 -186 5 -206 18 -56 37 -53 -71
-53 1941 0 1698 1 1859 16 1890 32 67 -9 64 809 61 707 -3 745 -4 860 -25z"/>
</g>
</svg>
