<svg width="640" height="640" viewBox="0 0 640 640" fill="none" xmlns="http://www.w3.org/2000/svg">
<g clip-path="url(#clip0_1854_261)">
<path d="M320 640C496.731 640 640 496.731 640 320C640 143.269 496.731 0 320 0C143.269 0 0 143.269 0 320C0 496.731 143.269 640 320 640Z" fill="#F2F2F2"/>
<mask id="mask0_1854_261" style="mask-type:luminance" maskUnits="userSpaceOnUse" x="0" y="0" width="640" height="640">
<path d="M320 640C496.731 640 640 496.731 640 320C640 143.269 496.731 0 320 0C143.269 0 0 143.269 0 320C0 496.731 143.269 640 320 640Z" fill="white"/>
</mask>
<g mask="url(#mask0_1854_261)">
<path d="M380.429 277.878C380.915 267.397 378.486 256.986 373.413 247.802C368.34 238.618 360.821 231.019 351.69 225.85C342.56 220.681 332.175 218.144 321.69 218.52C311.204 218.896 301.028 222.171 292.291 227.98C283.555 233.79 276.599 241.908 272.197 251.431C267.794 260.955 266.118 271.513 267.353 281.932C268.588 292.352 272.687 302.225 279.194 310.455C285.701 318.686 294.362 324.952 304.215 328.558L311.802 401.514L369.854 357.548C369.854 357.548 358.498 341.608 352.831 323.968C360.883 319.166 367.619 312.442 372.435 304.399C377.251 296.355 379.998 287.243 380.429 277.878Z" fill="#FFB6B6"/>
<path d="M343.993 240.793C337.556 243.464 329.754 242.551 324.112 238.468C310.302 245.901 293.692 248.008 278.455 244.259C276.185 250.267 271.611 255.376 265.88 258.306C265.654 249.99 268.516 241.625 273.792 235.178C269.002 237.323 264.213 239.469 259.423 241.614C263 236.466 266.576 231.317 270.152 226.169L270.967 225.466C266.645 224.287 262.322 223.108 258 221.929C266.174 217.73 275.682 216.162 284.777 217.514C283.182 213.763 279.57 210.937 275.536 210.284C285.075 208.272 294.614 206.259 304.154 204.246L303.827 205.417C316.623 202.543 329.789 199.653 342.748 201.676C355.706 203.7 368.587 211.808 372.266 224.357L372.327 223.684C380.096 223.853 387.691 227.827 392.245 234.104C396.798 240.381 398.203 248.816 395.93 256.223C393.203 265.107 385.558 272.666 385.958 281.948L385.608 282.021C388.139 296.197 364.732 315.987 352.729 324C357.815 321.636 362.356 313.512 360.916 308.105C359.477 302.699 372.546 282.373 366.953 282.833C363.814 283.092 346.774 278.349 344.428 271.568C342.451 265.855 340.458 259.679 342.19 253.888C342.874 251.603 344.111 249.51 344.754 247.214C345.397 244.917 345.321 242.191 343.669 240.467L343.993 240.793Z" fill="#222222"/>
<path d="M154.798 466.516L138.104 411.146C138.104 411.146 106.804 532.283 137.023 532.283C167.242 532.283 219.677 494.956 219.677 494.956L179.539 446.111L154.798 466.516Z" fill="#FFB6B6"/>
<path d="M490.05 492.916L489.857 576.726L477.607 639.56L403.507 639.383L433.863 497.627L490.05 492.916Z" fill="#FFB6B6"/>
<path d="M305.441 340.758L278.332 357.2C278.332 357.2 222.341 362.532 217.008 382.085C211.675 401.638 197.457 401.633 198.346 413.192L170.795 447.853C170.795 447.853 208.567 488.291 208.567 500.734C208.567 513.177 233.008 493.855 233.008 493.855V640H428.246L433.421 517.62C433.421 517.62 482.302 482.959 495.634 507.844L481.414 448.298C481.414 448.298 482.303 404.749 453.863 383.419L386.318 351.419C386.318 351.419 380.734 341.819 359.404 340.042L344.547 376.304L311.663 397.634L305.441 340.758Z" fill="#FDB515"/>
<path d="M184.938 338.183L178.076 475.334L130.535 478.619L147.198 336.375C140.622 329.358 136.687 318.894 137.239 307.375C138.204 287.226 152.504 271.54 169.179 272.339C185.854 273.138 198.589 290.119 197.623 310.268C197.072 321.787 192.154 331.827 184.938 338.183Z" fill="#FFB6B6"/>
</g>
</g>
<defs>
<clipPath id="clip0_1854_261">
<rect width="640" height="640" fill="white"/>
</clipPath>
</defs>
</svg>
