<svg width="1000" height="1000" viewBox="0 0 1000 1000" fill="none" xmlns="http://www.w3.org/2000/svg">
<g clip-path="url(#clip0_1850_7)">
<path d="M532.35 427.407H417.35V554.407H532.35V427.407Z" fill="#222222"/>
<path d="M417.94 290.999L385.903 380.146L353.866 372.779L393.393 282.237C390.46 276.286 389.962 268.59 392.636 261.101C397.314 247.996 409.899 240.511 420.744 244.383C431.589 248.254 436.589 262.016 431.911 275.121C429.237 282.611 423.978 288.252 417.94 290.999Z" fill="#FFB6B6"/>
<path d="M420.073 293.004C419.779 293.004 419.482 292.971 419.189 292.902C418.05 292.635 417.104 291.877 416.596 290.822L406.669 270.214C406.097 269.028 406.168 267.651 406.856 266.528L429.582 229.462C430.197 228.459 431.221 227.8 432.388 227.653L436.482 227.142C438.061 226.949 439.632 227.762 440.373 229.177L449.396 246.403C450.032 247.618 449.972 249.092 449.239 250.252L423.323 291.211C423.084 291.588 422.785 291.917 422.435 292.19C421.75 292.724 420.921 293.004 420.073 293.004Z" fill="#222222"/>
<path d="M421 284.952C420.88 284.952 420.76 284.945 420.639 284.931C419.522 284.798 418.582 284.061 418.186 283.007L413.178 269.668C412.851 268.796 412.942 267.841 413.427 267.048L433.35 234.479C433.891 233.594 434.833 233.058 435.87 233.044C436.95 233.057 437.864 233.544 438.429 234.415L446.37 246.686C447.026 247.699 447.011 249.002 446.333 250.002L423.476 283.639C422.913 284.469 421.986 284.952 421 284.952Z" fill="#FDB515"/>
<path d="M516.936 230.922C518.122 205.462 498.445 183.862 472.985 182.676C447.526 181.49 425.925 201.168 424.739 226.627C423.777 247.275 436.539 265.382 454.977 272.123L461.145 331.433L508.34 295.691C508.34 295.691 499.108 282.733 494.501 268.392C507.325 260.716 516.189 246.971 516.936 230.922Z" fill="#FFB6B6"/>
<path d="M504.35 276.85L455.35 292.85L453.35 305.85L420.35 474.85L433.35 489.85C433.35 489.85 419.85 495.35 428.85 507.35L423.85 523.35C423.85 523.35 474.85 561.35 542.85 527.35L519.85 289.35L504.35 276.85Z" fill="#FDB515"/>
<path d="M434.85 521.35L423.85 523.35L417.85 548.35L411.85 553.35L415.85 561.35L411.85 573.185C411.85 573.185 395.85 640.35 400.85 700.35L399.882 853.729L439.85 863.35L447.85 849.35L451.85 710.35L480.85 605.35L507.85 711.35L518.85 723.35L553.85 792.35C553.85 792.35 583.85 794.35 585.85 764.35C585.85 764.35 570.85 690.35 551.85 678.35L554.304 541.489L542.85 527.35L434.85 521.35Z" fill="#003262"/>
<path d="M437.85 856.35L440.85 884.35L404.85 880.35L406.85 848.35L437.85 856.35Z" fill="#FFB6B6"/>
<path d="M445.85 877.35C445.85 877.35 431.85 893.35 420.85 868.35C420.85 868.35 417.85 851.35 398.85 859.35L373.656 882.392C373.656 882.392 344.85 883.35 345.85 901.35C345.85 901.35 354.85 919.35 402.85 918.35C450.85 917.35 445.85 916.734 445.85 916.734V877.35Z" fill="#222222"/>
<path d="M549.85 788.35L551.85 807.35L543.85 831.35C543.85 831.35 529.85 866.35 551.85 866.35C573.85 866.35 585.85 843.254 585.85 843.254C585.85 843.254 592.85 814.35 589.85 799.35C589.85 799.35 600.238 769.328 584.544 758.339L549.85 788.35Z" fill="#222222"/>
<path d="M456.35 285.407L435.85 301.35C435.85 301.35 420.85 304.35 414.85 310.35C408.85 316.35 375.85 295.35 367.85 321.35L347.85 354.35L328.85 380.35V419.387L348.85 433.35C348.85 433.35 398.85 419.35 405.85 406.35C405.85 406.35 387.682 492.35 394.766 518.85L391.611 545.35L415.85 561.35L434.35 402.407L458.85 303.35L456.35 285.407Z" fill="#222222"/>
<path d="M488.333 198.474C483.002 200.693 476.539 199.934 471.867 196.541C460.429 202.718 446.671 204.469 434.051 201.354C432.17 206.346 428.382 210.592 423.636 213.026C423.449 206.116 425.819 199.165 430.188 193.808C426.222 195.59 422.255 197.373 418.288 199.156C421.25 194.878 424.212 190.6 427.174 186.321L427.849 185.737C424.269 184.758 420.689 183.778 417.109 182.798C423.879 179.309 431.754 178.006 439.287 179.13C437.966 176.013 434.974 173.665 431.633 173.122C439.534 171.45 447.435 169.777 455.336 168.105L455.066 169.078C465.664 166.689 476.569 164.288 487.302 165.969C498.034 167.651 508.703 174.388 511.75 184.816L511.801 184.256C518.236 184.397 524.527 187.699 528.298 192.915C532.069 198.131 533.233 205.14 531.351 211.295C529.092 218.678 522.76 224.958 523.091 232.672L522.801 232.732C524.897 244.512 504.292 261.749 494.35 268.407C498.562 266.443 503.542 258.9 502.35 254.407C501.158 249.915 511.982 233.025 507.35 233.407C504.75 233.622 490.636 229.681 488.693 224.046C487.056 219.299 485.405 214.167 486.84 209.355C487.406 207.456 488.431 205.717 488.964 203.809C489.496 201.9 489.433 199.635 488.065 198.202" fill="#222222"/>
<path d="M398.107 375.714L417.35 305.35C417.35 305.35 396.62 319.35 384.001 294.35L348.85 353.35" fill="#222222"/>
<path d="M561.297 559.503L593.335 470.357L625.371 477.724L585.844 568.266C588.777 574.216 589.275 581.912 586.601 589.402C581.923 602.507 569.339 609.992 558.493 606.12C547.648 602.248 542.649 588.486 547.327 575.381C550.001 567.892 555.26 562.251 561.297 559.503Z" fill="#FFB6B6"/>
<path d="M713.609 920.469H212.172C210.878 920.37 209.921 919.245 210.005 917.951C209.921 916.67 210.878 915.545 212.172 915.446H713.609C714.749 915.586 715.649 916.488 715.789 917.627C715.972 919.02 715.002 920.285 713.609 920.469Z" fill="#CCCCCC"/>
<path d="M494.35 273.407C494.35 273.407 523.85 272.349 524.85 289.349L582.85 313.349L629.85 454.349C629.85 454.349 615.85 538.349 599.85 550.349L589.85 576.349C589.85 576.349 587.85 556.349 557.85 557.349L558.85 545.349C558.85 545.349 526.85 571.349 501.85 564.349C501.85 564.349 472.882 377.181 492.866 333.765C492.866 333.765 505.35 276.407 494.35 273.407Z" fill="#222222"/>
<path d="M559.338 545.456L558.362 545.243L575.335 467.364L557.362 402.848L558.325 402.58L576.365 467.335L559.338 545.456Z" fill="white"/>
<path d="M733.311 298.972H697.128V299.972H733.311V298.972Z" fill="#090814"/>
<path d="M764.312 318.893H697.128V319.893H764.312V318.893Z" fill="#090814"/>
<path d="M764.312 336.736H697.128V337.736H764.312V336.736Z" fill="#090814"/>
<path d="M593.223 146.779C598.855 146.779 603.42 142.214 603.42 136.582C603.42 130.951 598.855 126.386 593.223 126.386C587.592 126.386 583.026 130.951 583.026 136.582C583.026 142.214 587.592 146.779 593.223 146.779Z" fill="#FDB515"/>
<path d="M618.715 146.779C624.346 146.779 628.912 142.214 628.912 136.582C628.912 130.951 624.346 126.386 618.715 126.386C613.083 126.386 608.518 130.951 608.518 136.582C608.518 142.214 613.083 146.779 618.715 146.779Z" fill="#FDB515"/>
<path d="M644.207 146.779C649.838 146.779 654.403 142.214 654.403 136.582C654.403 130.951 649.838 126.386 644.207 126.386C638.575 126.386 634.01 130.951 634.01 136.582C634.01 142.214 638.575 146.779 644.207 146.779Z" fill="#FDB515"/>
<path d="M578.161 198.33C577.379 198.33 576.594 198.119 575.872 197.693C574.274 196.752 573.444 195.026 573.707 193.189L576.357 174.634C562.452 164.361 554.485 149.58 554.485 134.033C554.485 104.239 583.298 80 618.715 80C654.132 80 682.944 104.239 682.944 134.033C682.944 163.827 654.131 188.065 618.715 188.065C611.372 188.065 604.159 187.025 597.274 184.975L580.862 197.404C580.05 198.019 579.109 198.329 578.161 198.33ZM618.715 81C583.85 81 555.485 104.791 555.485 134.033C555.485 149.347 563.396 163.916 577.189 174.005L577.431 174.182L574.697 193.331C574.493 194.759 575.137 196.101 576.379 196.832C577.622 197.564 579.107 197.478 580.258 196.607L597.076 183.871L597.319 183.944C604.184 186.016 611.382 187.065 618.715 187.065C653.58 187.065 681.944 163.275 681.944 134.033C681.944 104.791 653.58 81 618.715 81Z" fill="#090814"/>
<path d="M366.355 229.164H262.288C259.78 229.164 257.739 227.124 257.739 224.616V158.786C257.739 156.278 259.78 154.238 262.288 154.238H366.355C368.863 154.238 370.903 156.278 370.903 158.786V224.616C370.903 227.124 368.863 229.164 366.355 229.164ZM262.288 155.238C260.331 155.238 258.739 156.83 258.739 158.786V224.616C258.739 226.572 260.331 228.164 262.288 228.164H366.355C368.311 228.164 369.903 226.572 369.903 224.616V158.786C369.903 156.83 368.311 155.238 366.355 155.238H262.288Z" fill="#090814"/>
<path d="M314.316 202.58L314.005 202.329L266.846 164.049L267.477 163.271L314.326 201.301L362.661 163.268L363.28 164.053L314.316 202.58Z" fill="#090814"/>
<path d="M301.386 191.335L269.373 219.356L270.031 220.108L302.044 192.087L301.386 191.335Z" fill="#090814"/>
<path d="M330.43 189.176L329.739 189.898L362.625 221.379L363.316 220.656L330.43 189.176Z" fill="#090814"/>
<path d="M771.171 391.04H696.489C685.649 391.04 676.83 382.221 676.83 371.381V290.699C676.83 279.859 685.649 271.04 696.489 271.04H771.171C782.011 271.04 790.83 279.859 790.83 290.699V371.381C790.83 382.221 782.011 391.04 771.171 391.04ZM696.489 272.04C686.2 272.04 677.83 280.411 677.83 290.699V371.381C677.83 381.669 686.2 390.04 696.489 390.04H771.171C781.46 390.04 789.83 381.669 789.83 371.381V290.699C789.83 280.411 781.46 272.04 771.171 272.04H696.489Z" fill="#090814"/>
</g>
<defs>
<clipPath id="clip0_1850_7">
<rect width="580.83" height="840.469" fill="white" transform="translate(210 80)"/>
</clipPath>
</defs>
</svg>
