<svg width="1000" height="1000" viewBox="0 0 1000 1000" fill="none" xmlns="http://www.w3.org/2000/svg">
<g clip-path="url(#clip0_1850_2)">
<path d="M287.107 542H75C73.6744 541.998 72.4035 541.471 71.4662 540.534C70.5288 539.596 70.0015 538.326 70 537V283C70.0015 281.674 70.5288 280.404 71.4662 279.466C72.4035 278.529 73.6744 278.002 75 278H287.107C288.432 278.002 289.703 278.529 290.641 279.466C291.578 280.403 292.105 281.674 292.107 283V537C292.105 538.326 291.578 539.596 290.641 540.534C289.703 541.471 288.432 541.998 287.107 542ZM75 280C74.2046 280.001 73.4421 280.317 72.8797 280.88C72.3172 281.442 72.0009 282.205 72 283V537C72.0009 537.795 72.3172 538.558 72.8797 539.12C73.4421 539.683 74.2046 539.999 75 540H287.107C287.902 539.999 288.665 539.683 289.227 539.12C289.789 538.558 290.106 537.795 290.107 537V283C290.106 282.205 289.789 281.442 289.227 280.88C288.665 280.317 287.902 280.001 287.107 280H75Z" fill="#CACACA"/>
<path d="M258.553 332H103.553V428H258.553V332Z" fill="#FDB515"/>
<path d="M142.553 464H103.553V488H142.553V464Z" fill="#E4E4E4"/>
<path d="M258.553 464H219.553V488H258.553V464Z" fill="#E4E4E4"/>
<path d="M200.553 464H161.553V488H200.553V464Z" fill="#E4E4E4"/>
<path d="M579.107 420H367C365.674 419.998 364.403 419.471 363.466 418.534C362.529 417.596 362.002 416.326 362 415V161C362.002 159.674 362.529 158.403 363.466 157.466C364.403 156.529 365.674 156.002 367 156H579.107C580.432 156.002 581.703 156.529 582.641 157.466C583.578 158.403 584.105 159.674 584.107 161V415C584.105 416.326 583.578 417.596 582.641 418.534C581.703 419.471 580.432 419.998 579.107 420ZM367 158C366.205 158.001 365.442 158.317 364.88 158.88C364.317 159.442 364.001 160.205 364 161V415C364.001 415.795 364.317 416.558 364.88 417.12C365.442 417.683 366.205 417.999 367 418H579.107C579.902 417.999 580.665 417.683 581.227 417.12C581.789 416.558 582.106 415.795 582.107 415V161C582.106 160.205 581.789 159.442 581.227 158.88C580.665 158.317 579.902 158.001 579.107 158H367Z" fill="#CACACA"/>
<path d="M581.64 581H369.534C368.208 580.998 366.937 580.471 366 579.534C365.062 578.597 364.535 577.326 364.534 576V501C364.535 499.674 365.062 498.404 366 497.466C366.937 496.529 368.208 496.002 369.534 496H581.64C582.966 496.002 584.237 496.529 585.174 497.466C586.111 498.404 586.639 499.674 586.64 501V576C586.639 577.326 586.111 578.597 585.174 579.534C584.237 580.471 582.966 580.998 581.64 581ZM369.534 498C368.738 498.001 367.976 498.317 367.413 498.88C366.851 499.442 366.535 500.205 366.534 501V576C366.535 576.795 366.851 577.558 367.413 578.12C367.976 578.683 368.738 578.999 369.534 579H581.64C582.436 578.999 583.198 578.683 583.76 578.12C584.323 577.558 584.639 576.795 584.64 576V501C584.639 500.205 584.323 499.442 583.76 498.88C583.198 498.317 582.436 498.001 581.64 498H369.534Z" fill="#CACACA"/>
<path d="M538.053 326.5H408.053C401.426 326.5 396.053 331.873 396.053 338.5V338.5C396.053 345.127 401.426 350.5 408.053 350.5H538.053C544.681 350.5 550.053 345.127 550.053 338.5C550.053 331.873 544.681 326.5 538.053 326.5Z" fill="#E4E4E4"/>
<path d="M538.053 364.5H408.053C401.426 364.5 396.053 369.873 396.053 376.5V376.5C396.053 383.127 401.426 388.5 408.053 388.5H538.053C544.681 388.5 550.053 383.127 550.053 376.5C550.053 369.873 544.681 364.5 538.053 364.5Z" fill="#E4E4E4"/>
<path d="M473.053 299.5C503.981 299.5 529.053 274.428 529.053 243.5C529.053 212.572 503.981 187.5 473.053 187.5C442.125 187.5 417.053 212.572 417.053 243.5C417.053 274.428 442.125 299.5 473.053 299.5Z" fill="#FDB515"/>
<path d="M536.087 526.5H479.087C472.46 526.5 467.087 531.873 467.087 538.5C467.087 545.127 472.46 550.5 479.087 550.5H536.087C542.714 550.5 548.087 545.127 548.087 538.5C548.087 531.873 542.714 526.5 536.087 526.5Z" fill="#E4E4E4"/>
<path d="M425.087 560.5C437.237 560.5 447.087 550.65 447.087 538.5C447.087 526.35 437.237 516.5 425.087 516.5C412.937 516.5 403.087 526.35 403.087 538.5C403.087 550.65 412.937 560.5 425.087 560.5Z" fill="#FDB515"/>
<path d="M929.248 844H548.248C547.983 844 547.728 843.895 547.541 843.707C547.353 843.52 547.248 843.265 547.248 843C547.248 842.735 547.353 842.48 547.541 842.293C547.728 842.105 547.983 842 548.248 842H929.248C929.513 842 929.768 842.105 929.955 842.293C930.143 842.48 930.248 842.735 930.248 843C930.248 843.265 930.143 843.52 929.955 843.707C929.768 843.895 929.513 844 929.248 844Z" fill="#CACACA"/>
<path d="M816.379 628.045C815.681 627.047 815.211 625.908 815.001 624.709C814.791 623.509 814.846 622.278 815.164 621.102C815.481 619.927 816.052 618.835 816.837 617.904C817.621 616.973 818.601 616.225 819.706 615.713L816.762 586.258L830.382 593.407L831.09 620.282C831.826 622.196 831.836 624.313 831.115 626.233C830.395 628.152 828.996 629.741 827.183 630.698C825.369 631.655 823.268 631.914 821.277 631.425C819.286 630.936 817.543 629.733 816.379 628.045Z" fill="#FFB6B6"/>
<path d="M697.094 623.903C696.396 622.905 695.926 621.766 695.716 620.567C695.506 619.367 695.561 618.136 695.878 616.96C696.196 615.785 696.767 614.693 697.552 613.762C698.336 612.83 699.316 612.083 700.421 611.571L697.477 582.116L711.097 589.265L711.805 616.14C712.541 618.054 712.55 620.171 711.83 622.091C711.11 624.01 709.711 625.599 707.898 626.556C706.084 627.513 703.983 627.771 701.992 627.282C700 626.793 698.258 625.591 697.094 623.903Z" fill="#FFB6B6"/>
<path d="M787.949 831.734H777.794L772.962 792.562H787.951L787.949 831.734Z" fill="#FFB6B6"/>
<path d="M790.539 841.578L757.793 841.577V841.163C757.793 837.783 759.136 834.541 761.526 832.151C763.917 829.761 767.158 828.418 770.539 828.417L790.54 828.418L790.539 841.578Z" fill="#222222"/>
<path d="M712.568 831.734H702.412L697.581 792.562H712.569L712.568 831.734Z" fill="#FFB6B6"/>
<path d="M715.157 841.578L682.411 841.577V841.163C682.412 837.783 683.755 834.541 686.145 832.151C688.535 829.761 691.777 828.418 695.157 828.417L715.158 828.418L715.157 841.578Z" fill="#222222"/>
<path d="M780.639 424.438C793.636 417.334 798.412 401.038 791.308 388.042C784.203 375.045 767.908 370.269 754.911 377.373C741.914 384.478 737.138 400.773 744.242 413.77C751.347 426.767 767.642 431.543 780.639 424.438Z" fill="#FFB8B8"/>
<path d="M708.578 609.984L703.608 617.857L693.668 822.875L714.377 822.047L755.796 648.917L772.363 823.703L790.587 824.532L805.374 621.271L708.578 609.984Z" fill="#003262"/>
<path d="M817.095 455.079L783.132 436.855L745.027 434.37L711.448 455.079C711.448 455.079 740.885 542.058 708.578 592.588L703.608 616.611L806.326 624.066C806.326 624.066 799.699 516.378 808.811 503.124C817.923 489.87 817.095 455.079 817.095 455.079Z" fill="#FDB515"/>
<path d="M805.374 459.593L817.095 455.079C817.095 455.079 837.804 473.303 836.976 517.207C836.148 561.11 831.673 609.984 831.673 609.984L816.267 612.469L807.983 541.23L796.386 479.102L805.374 459.593Z" fill="#FDB515"/>
<path d="M723.613 459.593L711.892 455.079C711.892 455.079 691.183 473.303 692.011 517.207C692.839 561.11 697.314 609.984 697.314 609.984L712.72 612.469L721.004 541.23L732.601 479.102L723.613 459.593Z" fill="#FDB515"/>
<path d="M787.163 373.849C784.814 371.545 782.002 369.768 778.912 368.638C775.823 367.507 772.527 367.048 769.247 367.292C763.474 367.758 763.098 367.898 757.913 370.476C754.682 372.005 751.544 373.722 748.514 375.617C748.486 374.386 743.37 369.673 742.542 370.585C741.714 371.498 744.677 377.426 744.015 378.466C743.353 379.505 737.368 375.789 736.743 374.727C741.366 381.102 747.47 393.706 746.005 401.443C747.017 400.302 748.344 399.486 749.819 399.098C751.294 398.71 752.851 398.768 754.293 399.265C755.735 399.762 756.998 400.675 757.921 401.889C758.845 403.103 759.388 404.563 759.482 406.085C759.808 411.376 754.905 417.175 758.111 421.396C759.945 423.811 763.439 424.012 766.471 423.998L788.906 421.497C793.726 413.815 796.731 407.723 798.043 398.75C799.354 389.776 793.595 380.242 787.163 373.849Z" fill="#222222"/>
</g>
<defs>
<clipPath id="clip0_1850_2">
<rect width="860.248" height="688" fill="white" transform="translate(70 156)"/>
</clipPath>
</defs>
</svg>
