<svg width="1000" height="1000" viewBox="0 0 1000 1000" fill="none" xmlns="http://www.w3.org/2000/svg">
<g clip-path="url(#clip0_1850_3)">
<path d="M187.534 479.434C201.099 479.434 212.095 468.437 212.095 454.873C212.095 441.308 201.099 430.312 187.534 430.312C173.969 430.312 162.973 441.308 162.973 454.873C162.973 468.437 173.969 479.434 187.534 479.434Z" fill="#FFB6B6"/>
<path d="M104.543 749.197L110.762 759.763L154.474 740.803L145.295 725.21L104.543 749.197Z" fill="#FFB6B6"/>
<path d="M106.406 744.472L118.654 765.279C119.679 767.02 120.351 768.947 120.632 770.948C120.912 772.949 120.796 774.986 120.289 776.942C119.783 778.898 118.896 780.735 117.679 782.349C116.462 783.962 114.94 785.32 113.199 786.344L112.768 786.598L92.7153 752.531L106.406 744.472Z" fill="#222222"/>
<path d="M176.6 787.26L188.86 787.259L194.692 739.971L176.598 739.972L176.6 787.26Z" fill="#FFB6B6"/>
<path d="M173.473 783.257L197.617 783.256C199.638 783.256 201.639 783.654 203.506 784.427C205.373 785.201 207.069 786.334 208.498 787.763C209.927 789.191 211.06 790.888 211.833 792.754C212.606 794.621 213.004 796.622 213.004 798.643V799.143L173.474 799.144L173.473 783.257Z" fill="#222222"/>
<path d="M127.311 758.61C126.606 758.61 125.91 758.445 125.281 758.126C124.651 757.808 124.105 757.345 123.687 756.777L111.864 740.718C111.503 740.228 111.245 739.671 111.106 739.078C110.967 738.486 110.95 737.872 111.055 737.273C111.16 736.673 111.386 736.102 111.718 735.592C112.05 735.083 112.482 734.646 112.988 734.308L165.602 699.167L133.856 615.692L201.745 621.294L204.031 693.028C204.246 699.561 202.68 706.029 199.502 711.74C196.323 717.451 191.651 722.191 185.986 725.452L129.56 758.005C128.877 758.401 128.101 758.61 127.311 758.61Z" fill="#003262"/>
<path d="M176.97 777.66C175.806 777.657 174.687 777.204 173.85 776.395C173.013 775.586 172.523 774.483 172.481 773.32L169.993 703.438L200.802 701.815L198.348 772.199C198.312 773.314 197.862 774.375 197.086 775.177C196.309 775.978 195.262 776.461 194.149 776.532L177.276 777.65C177.174 777.657 177.072 777.66 176.97 777.66Z" fill="#003262"/>
<path d="M209.602 635.171C201.763 635.171 174.385 626.355 164.88 623.212C163.459 624.35 155.647 630.191 146.529 629.123C140.903 628.463 135.951 625.279 131.808 619.658C122.661 607.243 133.959 554.006 145.047 511.532C147.27 502.946 152.735 495.557 160.293 490.917C167.851 486.277 176.914 484.748 185.576 486.652C191.854 488.038 197.621 491.147 202.23 495.63C206.838 500.113 210.105 505.792 211.664 512.03C213.751 520.528 211.955 530.524 210.644 537.824C210.028 541.255 209.541 543.966 209.707 545.298C210.351 550.447 213.926 631.19 211.627 634.638C211.382 635.005 210.674 635.171 209.602 635.171Z" fill="#FDB515"/>
<path d="M180.927 635.314C182.187 634.376 183.225 633.174 183.97 631.791C184.715 630.408 185.147 628.879 185.237 627.311C185.327 625.743 185.072 624.175 184.49 622.716C183.908 621.257 183.013 619.944 181.868 618.868L182.354 521.025L159.309 524.862L166.078 619.833C164.399 621.875 163.527 624.463 163.628 627.105C163.729 629.747 164.796 632.26 166.626 634.169C168.457 636.077 170.923 637.248 173.559 637.459C176.195 637.67 178.816 636.907 180.927 635.314Z" fill="#FFB6B6"/>
<path d="M186.257 583.861H161.435C160.249 583.857 159.113 583.388 158.271 582.553C157.429 581.719 156.949 580.587 156.935 579.402L156.325 512.11C156.304 509.783 156.745 507.475 157.621 505.32C158.498 503.164 159.793 501.204 161.432 499.552C163.071 497.9 165.021 496.59 167.169 495.696C169.318 494.803 171.622 494.344 173.949 494.347C176.276 494.35 178.579 494.814 180.726 495.713C182.872 496.611 184.819 497.927 186.454 499.582C188.089 501.238 189.379 503.202 190.25 505.359C191.122 507.517 191.556 509.826 191.53 512.153L190.756 579.413C190.739 580.596 190.257 581.725 189.416 582.557C188.574 583.388 187.44 583.857 186.257 583.861Z" fill="#FDB515"/>
<path d="M181.28 479.331C170.035 479.352 159.426 470.463 157.477 459.388C156.78 455.037 157.094 450.584 158.397 446.374C159.811 441.582 162.236 437.148 165.508 433.373C168.781 429.597 172.825 426.567 177.367 424.487C181.91 422.406 186.846 421.324 191.843 421.313C196.839 421.301 201.78 422.361 206.332 424.421C209.34 425.783 212.303 427.738 213.681 430.739C215.058 433.74 214.196 437.934 211.183 439.284C209.214 440.167 206.743 439.733 204.996 441C202.487 442.819 203.132 446.691 204.253 449.581C205.373 452.471 206.641 455.968 204.762 458.433C203.012 460.731 199.514 460.66 196.758 459.795C194.002 458.93 191.282 457.482 188.409 457.777C184.219 458.206 181.208 462.374 180.65 466.55C180.093 470.725 181.405 474.899 182.7 478.907L181.28 479.331Z" fill="#222222"/>
<path d="M296 800.085H38C37.7348 800.085 37.4804 799.98 37.2929 799.792C37.1054 799.605 37 799.35 37 799.085C37 798.82 37.1054 798.565 37.2929 798.378C37.4804 798.19 37.7348 798.085 38 798.085H296C296.265 798.085 296.52 798.19 296.707 798.378C296.895 798.565 297 798.82 297 799.085C297 799.35 296.895 799.605 296.707 799.792C296.52 799.98 296.265 800.085 296 800.085Z" fill="#CCCCCC"/>
<path d="M947.122 634.548H306.283C301.909 634.543 297.715 632.803 294.621 629.71C291.528 626.616 289.788 622.422 289.783 618.048V222.894C289.787 219.689 291.061 216.617 293.328 214.35C295.594 212.084 298.666 210.809 301.871 210.806H951.325C954.585 210.809 957.711 212.106 960.016 214.412C962.321 216.717 963.618 219.843 963.622 223.103V618.048C963.617 622.422 961.877 626.616 958.784 629.71C955.69 632.803 951.496 634.543 947.122 634.548Z" fill="#E4E4E4"/>
<path d="M926.402 613.715H329.157C320.402 613.715 313.279 607.045 313.279 598.847V254.742C313.279 248.662 318.557 243.715 325.045 243.715H930.319C936.914 243.715 942.279 248.744 942.279 254.924V598.847C942.279 607.045 935.156 613.715 926.402 613.715Z" fill="white"/>
<path d="M963.392 224.95H289.552V216.55C289.558 212.161 291.305 207.953 294.41 204.851C297.514 201.748 301.723 200.004 306.112 200H946.832C951.221 200.004 955.43 201.748 958.534 204.851C961.639 207.953 963.386 212.161 963.392 216.55V224.95Z" fill="#003262"/>
<path d="M319.647 216.784C322.012 216.784 323.93 214.866 323.93 212.5C323.93 210.135 322.012 208.217 319.647 208.217C317.281 208.217 315.363 210.135 315.363 212.5C315.363 214.866 317.281 216.784 319.647 216.784Z" fill="white"/>
<path d="M335.906 216.784C338.272 216.784 340.189 214.866 340.189 212.5C340.189 210.135 338.272 208.217 335.906 208.217C333.54 208.217 331.623 210.135 331.623 212.5C331.623 214.866 333.54 216.784 335.906 216.784Z" fill="white"/>
<path d="M352.165 216.784C354.53 216.784 356.448 214.866 356.448 212.5C356.448 210.135 354.53 208.217 352.165 208.217C349.799 208.217 347.881 210.135 347.881 212.5C347.881 214.866 349.799 216.784 352.165 216.784Z" fill="white"/>
<path d="M613.611 318.955H496.802C495.061 318.955 493.391 318.263 492.159 317.031C490.928 315.8 490.236 314.13 490.236 312.388C490.236 310.647 490.928 308.977 492.159 307.745C493.391 306.514 495.061 305.822 496.802 305.822H613.611C615.352 305.822 617.022 306.514 618.254 307.745C619.485 308.977 620.177 310.647 620.177 312.388C620.177 314.13 619.485 315.8 618.254 317.031C617.022 318.263 615.352 318.955 613.611 318.955Z" fill="#CCCCCC"/>
<path d="M758.757 318.955H641.948C640.207 318.955 638.537 318.263 637.305 317.031C636.074 315.8 635.382 314.13 635.382 312.388C635.382 310.647 636.074 308.977 637.305 307.745C638.537 306.514 640.207 305.822 641.948 305.822H758.757C760.498 305.822 762.168 306.514 763.4 307.745C764.631 308.977 765.323 310.647 765.323 312.388C765.323 314.13 764.631 315.8 763.4 317.031C762.168 318.263 760.498 318.955 758.757 318.955Z" fill="#CCCCCC"/>
<path d="M758.757 343.837H555.552C553.811 343.837 552.14 343.145 550.909 341.914C549.678 340.682 548.986 339.012 548.986 337.271C548.986 335.529 549.678 333.859 550.909 332.628C552.14 331.396 553.811 330.705 555.552 330.705H758.757C760.498 330.705 762.168 331.396 763.4 332.628C764.631 333.859 765.323 335.529 765.323 337.271C765.323 339.012 764.631 340.682 763.4 341.914C762.168 343.145 760.498 343.837 758.757 343.837Z" fill="#CCCCCC"/>
<path d="M613.61 293.727H496.802C495.062 293.724 493.394 293.032 492.164 291.8C490.935 290.569 490.244 288.9 490.244 287.16C490.244 285.42 490.935 283.751 492.164 282.52C493.394 281.289 495.062 280.596 496.802 280.594H613.61C614.473 280.593 615.328 280.762 616.126 281.092C616.923 281.421 617.648 281.905 618.259 282.515C618.869 283.124 619.353 283.849 619.684 284.646C620.014 285.443 620.185 286.297 620.185 287.16C620.185 288.023 620.014 288.878 619.684 289.675C619.353 290.472 618.869 291.196 618.259 291.806C617.648 292.416 616.923 292.9 616.126 293.229C615.328 293.559 614.473 293.728 613.61 293.727Z" fill="#CCCCCC"/>
<path d="M677.889 294.072H644.713C642.972 294.072 641.302 293.38 640.07 292.149C638.839 290.918 638.147 289.248 638.147 287.506C638.147 285.765 638.839 284.095 640.07 282.863C641.302 281.632 642.972 280.94 644.713 280.94H677.889C679.631 280.94 681.301 281.632 682.532 282.863C683.764 284.095 684.456 285.765 684.456 287.506C684.456 289.248 683.764 290.918 682.532 292.149C681.301 293.38 679.631 294.072 677.889 294.072Z" fill="#CCCCCC"/>
<path d="M529.978 343.837H496.802C495.062 343.835 493.394 343.142 492.164 341.911C490.935 340.68 490.244 339.011 490.244 337.271C490.244 335.531 490.935 333.862 492.164 332.631C493.394 331.399 495.062 330.707 496.802 330.705H529.978C530.841 330.704 531.696 330.873 532.494 331.202C533.291 331.532 534.016 332.015 534.627 332.625C535.237 333.235 535.722 333.959 536.052 334.756C536.383 335.553 536.553 336.408 536.553 337.271C536.553 338.134 536.383 338.988 536.052 339.785C535.722 340.583 535.237 341.307 534.627 341.917C534.016 342.526 533.291 343.01 532.494 343.339C531.696 343.669 530.841 343.838 529.978 343.837Z" fill="#CCCCCC"/>
<path d="M613.611 551.955H496.802C495.061 551.955 493.391 551.263 492.159 550.031C490.928 548.8 490.236 547.13 490.236 545.388C490.236 543.647 490.928 541.977 492.159 540.745C493.391 539.514 495.061 538.822 496.802 538.822H613.611C614.473 538.822 615.327 538.992 616.123 539.322C616.92 539.652 617.644 540.136 618.254 540.745C618.863 541.355 619.347 542.079 619.677 542.876C620.007 543.672 620.177 544.526 620.177 545.388C620.177 546.251 620.007 547.105 619.677 547.901C619.347 548.698 618.863 549.422 618.254 550.031C617.644 550.641 616.92 551.125 616.123 551.455C615.327 551.785 614.473 551.955 613.611 551.955Z" fill="#CCCCCC"/>
<path d="M758.757 551.955H641.948C640.207 551.955 638.537 551.263 637.305 550.031C636.074 548.8 635.382 547.13 635.382 545.388C635.382 543.647 636.074 541.977 637.305 540.745C638.537 539.514 640.207 538.822 641.948 538.822H758.757C759.619 538.822 760.473 538.992 761.269 539.322C762.066 539.652 762.79 540.136 763.4 540.745C764.009 541.355 764.493 542.079 764.823 542.876C765.153 543.672 765.323 544.526 765.323 545.388C765.323 546.251 765.153 547.105 764.823 547.901C764.493 548.698 764.009 549.422 763.4 550.031C762.79 550.641 762.066 551.125 761.269 551.455C760.473 551.785 759.619 551.955 758.757 551.955Z" fill="#CCCCCC"/>
<path d="M758.757 576.837H555.552C553.811 576.837 552.14 576.145 550.909 574.914C549.678 573.682 548.986 572.012 548.986 570.271C548.986 568.529 549.678 566.859 550.909 565.628C552.14 564.396 553.811 563.705 555.552 563.705H758.757C759.62 563.704 760.474 563.873 761.272 564.202C762.069 564.532 762.794 565.015 763.405 565.625C764.015 566.235 764.5 566.959 764.83 567.756C765.161 568.553 765.331 569.408 765.331 570.271C765.331 571.134 765.161 571.988 764.83 572.785C764.5 573.583 764.015 574.307 763.405 574.917C762.794 575.526 762.069 576.01 761.272 576.339C760.474 576.669 759.62 576.838 758.757 576.837Z" fill="#CCCCCC"/>
<path d="M613.611 526.727H496.802C495.061 526.727 493.391 526.035 492.159 524.803C490.928 523.572 490.236 521.902 490.236 520.16C490.236 518.419 490.928 516.749 492.159 515.517C493.391 514.286 495.061 513.594 496.802 513.594H613.611C615.352 513.594 617.022 514.286 618.254 515.517C619.485 516.749 620.177 518.419 620.177 520.16C620.177 521.902 619.485 523.572 618.254 524.803C617.022 526.035 615.352 526.727 613.611 526.727Z" fill="#CCCCCC"/>
<path d="M677.889 527.072H644.713C642.972 527.072 641.302 526.38 640.07 525.149C638.839 523.918 638.147 522.248 638.147 520.506C638.147 518.765 638.839 517.095 640.07 515.863C641.302 514.632 642.972 513.94 644.713 513.94H677.889C679.631 513.94 681.301 514.632 682.532 515.863C683.764 517.095 684.456 518.765 684.456 520.506C684.456 522.248 683.764 523.918 682.532 525.149C681.301 526.38 679.631 527.072 677.889 527.072Z" fill="#CCCCCC"/>
<path d="M529.979 576.837H496.802C495.061 576.837 493.391 576.145 492.159 574.914C490.928 573.682 490.236 572.012 490.236 570.271C490.236 568.529 490.928 566.859 492.159 565.628C493.391 564.396 495.061 563.705 496.802 563.705H529.979C530.842 563.704 531.696 563.873 532.494 564.202C533.292 564.532 534.016 565.015 534.627 565.625C535.237 566.235 535.722 566.959 536.052 567.756C536.383 568.553 536.553 569.408 536.553 570.271C536.553 571.134 536.383 571.988 536.052 572.785C535.722 573.583 535.237 574.307 534.627 574.917C534.016 575.526 533.292 576.01 532.494 576.339C531.696 576.669 530.842 576.838 529.979 576.837Z" fill="#CCCCCC"/>
<path d="M583.104 481.462C580.625 481.468 578.244 480.493 576.48 478.752L532.572 435.393C531.71 434.541 531.025 433.527 530.558 432.41C530.091 431.292 529.851 430.092 529.851 428.881C529.851 427.669 530.091 426.47 530.558 425.352C531.025 424.234 531.71 423.22 532.572 422.369L576.303 379.185C578.125 377.394 580.579 376.395 583.134 376.403C585.688 376.411 588.136 377.426 589.947 379.228C591.759 381.044 592.777 383.505 592.777 386.071C592.777 388.637 591.759 391.098 589.947 392.914L557.451 425.411C556.438 426.426 555.87 427.801 555.87 429.234C555.87 430.668 556.438 432.043 557.451 433.058L589.77 465.378C591.09 466.695 591.989 468.374 592.354 470.203C592.718 472.032 592.532 473.927 591.818 475.65C591.104 477.373 589.895 478.844 588.343 479.879C586.792 480.914 584.969 481.465 583.104 481.462Z" fill="#FDB515"/>
<path d="M653.069 481.461C651.205 481.464 649.381 480.913 647.83 479.879C646.279 478.844 645.07 477.372 644.356 475.65C643.642 473.927 643.455 472.031 643.82 470.203C644.184 468.374 645.083 466.695 646.403 465.377L678.723 433.057C679.735 432.042 680.304 430.667 680.304 429.234C680.304 427.8 679.735 426.426 678.723 425.411L646.227 392.914C645.328 392.015 644.615 390.948 644.129 389.774C643.642 388.6 643.392 387.342 643.392 386.071C643.392 384.8 643.642 383.541 644.129 382.367C644.615 381.193 645.328 380.126 646.227 379.227C648.037 377.426 650.485 376.41 653.04 376.402C655.594 376.394 658.049 377.394 659.87 379.184L703.602 422.369C704.464 423.22 705.148 424.234 705.615 425.352C706.082 426.469 706.323 427.669 706.323 428.88C706.323 430.092 706.082 431.291 705.615 432.409C705.148 433.527 704.464 434.541 703.602 435.392L659.693 478.751C657.929 480.493 655.548 481.467 653.069 481.461Z" fill="#FDB515"/>
</g>
<defs>
<clipPath id="clip0_1850_3">
<rect width="926.622" height="600.085" fill="white" transform="translate(37 200)"/>
</clipPath>
</defs>
</svg>
